<?xml version="1.0" encoding="utf-8"?>
<!-- Generator: Adobe Illustrator 21.0.0, SVG Export Plug-In . SVG Version: 6.00 Build 0)  -->
<svg version="1.1" id="Слой_2" xmlns="http://www.w3.org/2000/svg" xmlns:xlink="http://www.w3.org/1999/xlink" x="0px" y="0px"
	 viewBox="0 0 1258.6 560" style="enable-background:new 0 0 1258.6 560;" xml:space="preserve">
<g>
	<path d="M155.5,352.3c-39,0-65.9-29.3-65.9-65.7c0-36.5,26.9-65.7,65.9-65.7c23.3,0,43.9,12.3,53.6,30.5l10-5.7
		C206.9,224,182.9,210,155.5,210c-45.2,0-77.2,34.1-77.2,76.5c0,42.4,32,76.5,77.2,76.5c27.8,0,51.9-14.4,64-36.3l-10-5.7
		C199.9,339.8,179.1,352.3,155.5,352.3z"/>
	<rect x="241" y="212.3" width="104.7" height="10.6"/>
	<rect x="287.6" y="240" width="11.4" height="120.7"/>
	<path d="M425.6,308.4l-45.8-96h-11.7l52.2,108.8l-2.5,5.9c-7.6,17.8-18,25-33.9,23.3v10.4c20.1,1.5,34.8-8.1,45.2-32.4l49.4-116
		h-11.7L425.6,308.4z"/>
	<path d="M510.2,350.1c7.2-10.2,13.1-25.9,13.1-53v-74.2h69.1V333h11.2V212.3h-91.6v84.6c0,28.8-7,43.9-15.3,53.2H485v39h11.4v-28.4
		H608v28.4h11.4v-39H510.2z"/>
	<polygon points="667.7,340 667.7,212.3 656.5,212.3 656.5,360.7 666.3,360.7 754,233.1 754,360.7 765.3,360.7 765.3,212.3 
		755.3,212.3 	"/>
	<path d="M806.4,256.2c0,22,16.5,40.5,37.9,43.2l-42.2,61.3h12.7l42-60.8h23.4v-10.6h-30.2c-17.8,0-32.4-14.8-32.4-33.1
		c0-18.4,14.6-33.3,32.4-33.3h47.5v137.8h11.2V212.3h-58.7C825.9,212.3,806.4,232.1,806.4,256.2z"/>
	<polygon points="1008.6,225.7 1011.4,235.5 1045.7,224.6 1045.7,360.7 1057,360.7 1057,212.3 1047.4,212.3 	"/>
	<path d="M1147.5,274l35.8-51.1v-10.6h-85.4v10.6h72.5l-37.5,53.2l4.9,7.4h3l0.2-0.2v0.2c22,0,38.2,12.9,38.2,34.3
		s-16.1,34.3-37.7,34.3c-18.7,0-32.4-8.1-37.9-22.9l-9.3,5.5c7.2,18.2,25.7,28.2,47.3,28.2c26.3,0,49-16.5,49-45.2
		C1190.3,291.6,1171.2,276.4,1147.5,274z"/>
</g>
</svg>
