<?xml version="1.0" encoding="utf-8"?>
<!-- Generator: Adobe Illustrator 21.0.2, SVG Export Plug-In . SVG Version: 6.00 Build 0)  -->
<svg version="1.1" id="Слой_2" xmlns="http://www.w3.org/2000/svg" xmlns:xlink="http://www.w3.org/1999/xlink" x="0px" y="0px"
	 viewBox="0 0 1121 183" style="enable-background:new 0 0 1121 183;" xml:space="preserve">
<style type="text/css">
	.st0{fill:#FFFFFF;}
</style>
<g>
	<path class="st0" d="M81.5,142.3c-39,0-65.9-29.3-65.9-65.7c0-36.5,26.9-65.7,65.9-65.7c23.3,0,43.9,12.3,53.6,30.5l10-5.7
		C132.9,14,108.9,0,81.5,0C36.3,0,4.3,34.1,4.3,76.5s32,76.5,77.2,76.5c27.8,0,51.9-14.4,64-36.3l-10-5.7
		C125.9,129.8,105.1,142.3,81.5,142.3z"/>
	<rect x="167" y="2.3" class="st0" width="104.7" height="10.6"/>
	<rect x="213.6" y="30" class="st0" width="11.4" height="120.7"/>
	<path class="st0" d="M351.6,98.4l-45.8-96h-11.7l52.2,108.8l-2.5,5.9c-7.6,17.8-18,25-33.9,23.3v10.4c20.1,1.5,34.8-8.1,45.2-32.4
		l49.4-116h-11.7L351.6,98.4z"/>
	<path class="st0" d="M436.2,140.1c7.2-10.2,13.1-25.9,13.1-53V12.9h69.1V123h11.2V2.3H438v84.6c0,28.8-7,43.9-15.3,53.2H411v39
		h11.4v-28.4H534v28.4h11.4v-39H436.2z"/>
	<polygon class="st0" points="593.7,130 593.7,2.3 582.5,2.3 582.5,150.7 592.3,150.7 680,23.1 680,150.7 691.3,150.7 691.3,2.3 
		681.3,2.3 	"/>
	<path class="st0" d="M732.4,46.2c0,22,16.5,40.5,37.9,43.2l-42.2,61.3h12.7l42-60.8h23.4V79.3H776c-17.8,0-32.4-14.8-32.4-33.1
		c0-18.4,14.6-33.3,32.4-33.3h47.5v137.8h11.2V2.3H776C751.9,2.3,732.4,22.1,732.4,46.2z"/>
	<polygon class="st0" points="934.6,15.7 937.4,25.5 971.7,14.6 971.7,150.7 983,150.7 983,2.3 973.4,2.3 	"/>
	<path class="st0" d="M1073.5,64l35.8-51.1V2.3h-85.4v10.6h72.5l-37.5,53.2l4.9,7.4h3l0.2-0.2v0.2c22,0,38.2,12.9,38.2,34.3
		s-16.1,34.3-37.7,34.3c-18.7,0-32.4-8.1-37.9-22.9l-9.3,5.5c7.2,18.2,25.7,28.2,47.3,28.2c26.3,0,49-16.5,49-45.2
		C1116.3,81.6,1097.2,66.4,1073.5,64z"/>
</g>
</svg>
